<svg version="1.1" id="Layer_1" xmlns="http://www.w3.org/2000/svg" x="0px" y="0px" viewBox="0 0 175 42" xml:space="preserve">
<path d="M102.4 19.3c-0.2-0.8-0.7-1.1-1.5-1.1h-1.5c-0.8 0-1.2 0.3-1.5 1.1l-4 13.3c-0.3 1 0.3 1.5 1.1 1.5h0.9c0.9 0 1.2-0.3 1.4-1.1l0.5-2.1h4.5L103 33c0.2 0.8 0.5 1.1 1.4 1.1h0.9c0.8 0 1.4-0.6 1.1-1.5L102.4 19.3zM98.6 28.2l1.6-6 1.5 6H98.6zM46.8 22.1c0-1.1-0.7-1.8-1.8-1.8 -1.1 0-1.8 0.8-1.8 1.9 0 0.8 0.3 1.4 1.2 2.3C46 23.9 46.8 23.2 46.8 22.1zM67 32.9c-4.1 0-7.2-2.9-7.2-7.4 0-4.4 2.9-7.5 7.2-7.5 1.6 0 3.3 0.6 4.5 1.5h5.9c-2-3.6-5.9-6-10.4-6 -5.7 0-10.4 3.8-11.6 9.2V0H35.6v30.4c-0.1-4.4-3.9-5.8-7.2-7 -2.9-1-5.5-1.7-5.5-3.4 0-1.6 1.4-2.5 3.5-2.5 1.6 0 3 0.7 3.9 2h4.9c-1.1-3.5-4.4-6-8.6-6 -4.9 0-8.4 3.1-8.4 6.6 0 4 3.4 5.4 6.1 6.4 3.3 1.2 6.5 1.9 6.5 4.1 0 1.5-1.4 2.7-3.7 2.7 -2.1 0-3.7-1-4.6-2.4h-4.4c0-0.2 0-0.3 0-0.5 0-4.5-3.8-5.9-7.2-7.1 -2.9-1-5.5-1.7-5.5-3.4 0-1.6 1.4-2.5 3.5-2.5 1.6 0 3 0.7 3.9 2h4.9c-1.1-3.5-4.4-6-8.6-6 -4.9 0-8.4 3.1-8.4 6.6 0 4 3.4 5.4 6.1 6.4 3.3 1.2 6.5 1.9 6.5 4.1 0 1.5-1.4 2.7-3.7 2.7 -2.1 0-3.7-1-4.6-2.4H0c1.3 4 4.6 6.5 9.3 6.5 4.5 0 7.8-2.2 8.6-5.4 1.5 3.3 4.6 5.4 8.8 5.4 5.2 0 8.7-2.9 8.8-6.9V42h19.8V28.3c1.2 5.5 5.9 9.2 11.6 9.2 4.8 0 8.8-2.6 10.7-6.5h-5.6C70.8 32.2 68.9 32.9 67 32.9zM51.1 34.6L48.5 32l0 0c-1.3 1.2-2.8 2-4.7 2 -2.8 0-5-1.7-5-4.4 0-2 1.2-3.4 3.3-4.3 -0.9-1.1-1.3-2.1-1.3-3.2 0-2.1 1.7-3.9 4.4-3.9 2.4 0 4.1 1.6 4.1 3.7 0 2-1.3 3.2-3.4 4l1 1h4.2V34.6zM41.5 29.5c0 1.3 1.1 2.3 2.6 2.3 1.1 0 2-0.5 2.9-1.3l0 0L43.5 27C42.1 27.6 41.5 28.5 41.5 29.5zM86.8 17.5c-0.1 0-0.1 0.1-0.1 0.1v16.2c0 0.1 0.1 0.1 0.1 0.1 0.1 0 0.1-0.1 0.1-0.1V17.6C86.9 17.6 86.8 17.5 86.8 17.5z"/><polygon points="43.5 27 43.5 27 43.5 27 "/><path d="M131.5 18.3h-0.9c-0.9 0-1.2 0.3-1.4 1.1l-2.8 10.9 -2.8-10.9c-0.2-0.8-0.5-1.1-1.4-1.1h-0.9c-0.8 0-1.4 0.6-1.1 1.5l4 13.3c0.2 0.8 0.7 1.1 1.5 1.1h1.5c0.8 0 1.2-0.3 1.5-1.1l4-13.3C132.9 18.9 132.3 18.3 131.5 18.3zM173.8 20c0.2-0.1 0.2-0.3 0.2-0.5 0-0.3-0.1-0.5-0.6-0.5h-0.6c-0.1 0-0.2 0.1-0.2 0.2v1.3c0 0.1 0.1 0.2 0.2 0.2h0c0.1 0 0.2-0.1 0.2-0.2v-0.4h0.3l0.3 0.5c0.1 0.1 0.1 0.1 0.2 0.1h0.1c0.1 0 0.2-0.1 0.1-0.2L173.8 20zM173.5 19.8h-0.3v-0.4h0.3c0.2 0 0.2 0.1 0.2 0.2C173.7 19.7 173.6 19.8 173.5 19.8zM173.4 18.3c-0.8 0-1.6 0.3-1.6 1.5 0 1.3 0.7 1.5 1.6 1.5 0.8 0 1.6-0.3 1.6-1.5C175 18.6 174.2 18.3 173.4 18.3zM173.4 21c-0.7 0-1.2-0.2-1.2-1.2 0-1 0.5-1.2 1.2-1.2 0.7 0 1.2 0.2 1.2 1.2C174.6 20.9 174.1 21 173.4 21zM112.9 18.3H109c-0.8 0-1.2 0.4-1.2 1.2v13.4c0 0.8 0.4 1.2 1.2 1.2h3.9c5.3 0 6.7-3.4 6.7-7.9S118.3 18.3 112.9 18.3zM113 31h-1.8v-9.6h1.8c2.5 0 3.2 1.8 3.2 4.8C116.2 29.3 115.4 31 113 31zM169.2 18.3h-8.6c-0.8 0-1.2 0.4-1.2 1.2v0.7c0 0.8 0.4 1.2 1.2 1.2h2.6v11.5c0 0.8 0.4 1.2 1.2 1.2h1c0.8 0 1.2-0.4 1.2-1.2V21.4h2.6c0.8 0 1.2-0.4 1.2-1.2v-0.7C170.4 18.7 170 18.3 169.2 18.3zM143 31h-5.7v-3.6h4.9c0.8 0 1.2-0.4 1.2-1.2v-0.7c0-0.8-0.4-1.2-1.2-1.2h-4.9v-3h5.5c0.8 0 1.2-0.4 1.2-1.2v-0.7c0-0.8-0.4-1.2-1.2-1.2h-7.7c-0.8 0-1.2 0.4-1.2 1.2v13.4c0 0.8 0.4 1.2 1.2 1.2h7.9c0.8 0 1.2-0.4 1.2-1.2v-0.7C144.2 31.4 143.8 31 143 31zM156.8 18.3h-0.9c-0.8 0-1.2 0.4-1.2 1.2l0.1 8.2L150 19c-0.3-0.4-0.6-0.7-1.2-0.7h-1.3c-0.8 0-1.2 0.4-1.2 1.2v13.4c0 0.8 0.4 1.2 1.2 1.2h0.9c0.8 0 1.2-0.4 1.2-1.2l-0.1-8.2 4.8 8.8c0.3 0.5 0.6 0.7 1.2 0.7h1.3c0.8 0 1.2-0.4 1.2-1.2V19.5C157.9 18.7 157.6 18.3 156.8 18.3z"/></svg>